# xmcd
#
# Track frame offsets:
#	150
#	11442
#	23872
#	36480
#	49735
#	63522
#	76345
#	88605
#	102222
#	115092
#	128552
#	139985
#	152240
#	163720
#	175630
#	187872
#	199652
#	259077
#
# Disc length: 3619 seconds
# Revision: 4
# Processed by: cddbd v1.5.2PL0 Copyright (c) Steve Scherf et al.
# Submitted via: dBpowerAMP V12.0
#
DISCID=e70e2112
DTITLE=Sonny Boy Williamson - King Biscuit Time
DYEAR=1970
DGENRE=Blues
TTITLE0=Do It if You Wanna [1951]
TTITLE1=Cool, Cool Blues [1951]
TTITLE2=Come on Back Home [1951]
TTITLE3=Stop Crying [1951]
TTITLE4=Eyesight to the Blind [1951]
TTITLE5=West Memphis Blues [1951]
TTITLE6=I Cross My Heart [1951]
TTITLE7=Crazy About You Baby [1951]
TTITLE8=Nine Below Zero [1951]
TTITLE9=Mighty Long Time [1951]
TTITLE10=She Brought Life Back to the Dead [1951]
TTITLE11=Stop Now Baby [1951]
TTITLE12=Mr. Downchild [1951]
TTITLE13=Sonny Boy's Christmas Blues [1951]
TTITLE14=Pontiac Blues [1951]
TTITLE15=Too Close Together [1951]
TTITLE16=Radio Program (KFFA) - V-8 Ford and More [1951]
TTITLE17=Dust My Broom - By Elmore James [1951]
EXTD=
EXTT0=
EXTT1=
EXTT2=
EXTT3=
EXTT4=
EXTT5=
EXTT6=
EXTT7=
EXTT8=
EXTT9=
EXTT10=
EXTT11=
EXTT12=
EXTT13=
EXTT14=
EXTT15=
EXTT16=
EXTT17=
PLAYORDER=
